<svg width="26" height="26" viewBox="0 0 26 26" fill="none" xmlns="http://www.w3.org/2000/svg">
<g clip-path="url(#clip0)">
<path d="M12.6407 20.9735H9.29126V17.9913H12.2758C15.0288 17.9913 17.6297 15.7529 17.6297 13C17.6297 10.247 15.0288 8.01096 12.2758 8.01096H9.29126V5.02643H12.6407C14.7554 5.02643 16.7835 5.8665 18.2788 7.36183C19.7741 8.85716 20.6142 10.8853 20.6142 13C20.6142 15.1147 19.7741 17.1428 18.2788 18.6381C16.7835 20.1335 14.7554 20.9735 12.6407 20.9735Z" fill="#3763A4"/>
<path d="M12.6407 26H2.84741V17.9914H5.83194V23.0178H12.6407C15.2708 22.9776 17.7795 21.9046 19.6252 20.0305C21.4709 18.1564 22.5054 15.6315 22.5054 13.0012C22.5054 10.3708 21.4709 7.84595 19.6252 5.97183C17.7795 4.09772 15.2708 3.02472 12.6407 2.98453H5.83194V8.01097H2.84741V0H12.6407C16.0885 0 19.3951 1.36964 21.8331 3.80761C24.271 6.24558 25.6407 9.55219 25.6407 13C25.6407 16.4478 24.271 19.7544 21.8331 22.1924C19.3951 24.6304 16.0885 26 12.6407 26Z" fill="#3763A4"/>
<path d="M7.3967 11.5078H0.8125V14.4923H7.3967V11.5078Z" fill="#3763A4"/>
<path d="M12.2758 7.04962H9.29126V19.5514H12.2758V7.04962Z" fill="#3763A4"/>
</g>
<defs>
<clipPath id="clip0">
<rect width="24.8282" height="26" fill="white" transform="translate(0.8125)"/>
</clipPath>
</defs>
</svg>
